<?xml version="1.0" standalone="no"?>
<!DOCTYPE svg PUBLIC "-//W3C//DTD SVG 1.1//EN" "http://www.w3.org/Graphics/SVG/1.1/DTD/svg11.dtd" >
<svg xmlns="http://www.w3.org/2000/svg">
<metadata>
This is a custom SVG font generated by IcoMoon.
<iconset grid="16"></iconset>
</metadata>
<defs>
<font id="Live-Boldly-Donts" horiz-adv-x="512" >
<font-face units-per-em="512" ascent="480" descent="-32" />
<missing-glyph horiz-adv-x="512" />
<glyph class="hidden" unicode="&#xf000;" d="M0,480L 512 -32L0 -32 z" horiz-adv-x="0" />
<glyph unicode="&#x58;" d="M 255.969,430.492c-112.614,0-203.914-91.3-203.914-203.924c0-112.625, 91.302-203.917, 203.914-203.917
		c 112.625,0, 203.924,91.292, 203.924,203.917C 459.894,339.195, 368.594,430.492, 255.969,430.492z M 318.559,141.522
		c-11.889-6.804-24.527-8.742-37.655-3.73c-9.741,3.704-16.819,10.181-18.826,20.823c-1.82,9.449, 1.196,17.697, 7.611,24.694
		c 9.388,10.204, 21.256,14.316, 34.844,13.732c 2.962-0.123, 5.898-0.881, 8.819-1.39c 1.234-0.212, 2.414-0.558, 3.914-0.914
		c0,25.574,0,50.788,0,76.365c-4.001-0.233-7.846-0.361-11.64-0.696c-17.121-1.5-34.089-4.086-50.839-7.854
		c-11.154-2.524-22.203-5.599-33.334-8.361c-2.179-0.538-2.988-1.505-2.988-3.93c 0.041-33.196-0.067-66.401-0.161-99.607
		c-0.020-2.913-0.192-5.814-0.425-8.717c-0.663-8.878-4.859-16.033-11.738-21.312c-13.998-10.719-29.023-12.623-46.042-6.748
		c-14.932,5.166-22.735,24.763-11.282,41.254c 5.025,7.245, 12.065,11.866, 20.206,14.815c 9.19,3.331, 18.565,3.359, 27.93,0.701
		c 0.637-0.172, 1.254-0.353, 2.125-0.591c 0.067,1.134, 0.212,2.104, 0.212,3.075c0,42.542,0,85.089, 0.033,127.639
		c0,2.184-0.061,4.388, 0.192,6.548c 0.087,0.776, 0.824,1.846, 1.533,2.125c 25.976,10.296, 52.982,16.527, 80.614,20.058
		c 13.965,1.792, 28.088,2.504, 42.143,3.625c 3.366,0.279, 6.756,0.253, 10.12,0.438c 1.748,0.1, 2.266-0.658, 2.266-2.345
		c 0.028-9.946, 0.233-19.878, 0.253-29.824c 0.026-42.947-0.054-85.885, 0.054-128.829C 336.538,158.628, 330.388,148.303, 318.559,141.522z" />
<glyph unicode="&#x41;" d="M 265.9,340.439c-3.1,0.33-6.236,0.532-9.393,0.532c-0.044,0-0.064,0-0.064,0s0,0-0.028,0
	c-3.213,0-6.369-0.202-9.498-0.532c-119.178-5.683-175.949-114.245-175.949-114.245s 59.645-114.726, 185.482-114.726
	c 125.775,0, 185.393,114.721, 185.393,114.721S 385.091,334.758, 265.9,340.439z M 226.117,284.168c 13.635,0, 24.689-11.044, 24.689-24.65
	c0-13.635-11.054-24.714-24.689-24.714c-13.619,0-24.65,11.080-24.65,24.714C 201.459,273.121, 212.498,284.168, 226.117,284.168z M 256.448,144.084
	c-79.936,0-128.535,54.415-148.091,82.104c 11.748,16.678, 34.15,43.031, 67.556,61.386c-4.429-10.432-6.856-21.937-6.856-33.961
	c0-48.261, 39.094-87.386, 87.355-87.386c 48.269,0, 87.37,39.124, 87.37,87.386c0,11.968-2.432,23.386-6.784,33.777
	c 33.257-18.365, 55.7-44.646, 67.471-61.228C 384.924,198.508, 336.317,144.084, 256.448,144.084z" />
<glyph unicode="&#x42;" d="M 392.699,324.38l 3.256,0 c 6.387,0, 11.558,5.174, 11.558,11.551s-5.171,11.551-11.558,11.551l-125.983,0 l-1.052,42.345
	c0,6.382-5.171,11.558-11.551,11.558s-11.551-5.174-11.551-11.558l-1.052-42.345L 118.776,347.482 c-6.374,0-11.535-5.174-11.535-11.551
	s 5.164-11.551, 11.535-11.551l 3.277,0 l-57.167-165.53c0,0,0-38.502, 69.289-38.502c 69.297,0, 69.297,38.502, 69.297,38.502l-57.16,165.53l 97.879,0 
	l-0.2-8.148c-5.875-4.183-9.725-11.039-9.725-18.798c0-7.347, 3.451-13.883, 8.799-18.12l-4.744-190.395
	c-73.293-4.902-73.339-37.862-73.339-37.862l 184.781,0 c0,0-0.067,32.96-73.352,37.868l-4.744,190.397c 5.348,4.229, 8.799,10.765, 8.799,18.112
	c0,7.759-3.837,14.615-9.718,18.798l-0.2,8.148l 97.874,0 l-57.16-165.53c0,0,0-38.502, 69.297-38.502s 69.297,38.502, 69.297,38.502
	L 392.699,324.38z M 126.484,289.416l0-130.565 L 82.028,158.851 L 126.484,289.416z M 141.885,158.851L 141.885,289.416 l 44.449-130.565L 141.885,158.851 z M 388.262,289.416
	l 44.444-130.565l-44.444,0 L 388.262,289.416 z M 372.861,289.416l0-130.565 l-44.444,0 L 372.861,289.416z" />
<glyph unicode="&#x43;" d="M 221.327,254.118A5.932,5.932 180 1 1 233.19,254.118A5.932,5.932 180 1 1 221.327,254.118zM 181.025,297.073l0-194.844 l 147.151,0 L 328.177,297.073 L 181.025,297.073 z M 260.598,184.666L 205.1,240.156l 6.344,29.78l 29.783,6.346l 55.491-55.491
				L 260.598,184.666zM 164.787,297.073L 121.667,297.073 c-6.735,0-12.186-5.45-12.186-12.178l0-170.491 c0-6.72, 5.45-12.178, 12.186-12.178L 164.787,102.226 L 164.787,297.073 zM 387.54,297.073l-43.126,0 l0-194.844 l 43.126,0 c 6.73,0, 12.18,5.458, 12.18,12.178L 399.721,284.895 
			C 399.721,291.622, 394.271,297.073, 387.54,297.073zM 207.585,305.203L 207.585,318.054 c0,6.717, 5.445,12.17, 12.173,12.17l 69.688,0 c 6.735,0, 12.18-5.453, 12.18-12.17l0-12.854 l 22.318,0 L 323.945,318.054 
		c0,19.021-15.473,34.504-34.499,34.504L 219.758,352.558 c-19.016,0-34.506-15.483-34.506-34.504l0-12.854 L 207.585,305.201 z" />
<glyph unicode="&#x44;" d="M 254.904,429.632c-111.683,0-202.24-90.545-202.24-202.24s 90.557-202.24, 202.24-202.24c 111.695,0, 202.24,90.545, 202.24,202.24S 366.6,429.632, 254.904,429.632z
	 M 186.849,133.842c-14.188,0-25.733,11.543-25.733,25.738c0,14.208, 11.546,25.754, 25.733,25.754c 14.195,0, 25.746-11.546, 25.746-25.754
	C 212.595,145.385, 201.044,133.842, 186.849,133.842z M 260.411,133.842c-10.813,0-19.617,8.791-19.617,19.607
	c0,33.129-26.947,60.073-60.078,60.073c-10.806,0-19.597,8.804-19.597,19.622s 8.794,19.622, 19.597,19.622
	c 26.568,0, 51.489-10.332, 70.252-29.082c 18.724-18.737, 29.059-43.679, 29.059-70.236C 280.026,142.633, 271.232,133.842, 260.411,133.842z
	 M 329.057,133.842c-10.806,0-19.61,8.791-19.61,19.607c0,70.991-57.736,128.727-128.732,128.727c-10.806,0-19.597,8.801-19.597,19.615
	c0,10.826, 8.794,19.617, 19.597,19.617c 44.902,0, 87.091-17.457, 118.792-49.165c 31.695-31.711, 49.178-73.897, 49.178-118.794
	C 348.685,142.633, 339.881,133.842, 329.057,133.842z" />
<glyph unicode="&#x45;" d="M 259.3,429.632c-111.683,0-202.243-90.547-202.243-202.237c0-111.698, 90.56-202.243, 202.243-202.243
	c 111.698,0, 202.243,90.545, 202.243,202.243C 461.542,339.085, 370.998,429.632, 259.3,429.632z M 310.484,183.194L 225.815,183.194 L 166.958,183.194 l-13.215,0 L 114.716,183.194 
	L 114.716,272.061 l 39.030,0 l 13.215,0 l 58.857,0 l 84.669,0 L 310.487,183.194 z M 322.501,183.194l-0.904,0 L 321.597,272.061 l 0.904,0 L 322.501,183.194 z M 335.716,155.569l-7.813,0 L 327.903,299.087 l 7.813,0 
	L 335.716,155.569 z M 341.714,183.194l-0.904,0 L 340.81,272.061 l 0.904,0 L 341.714,183.194 z M 401.769,183.194l-51.057,0 L 350.712,272.061 l 51.057,0 L 401.769,183.194 z" />
<glyph unicode="&#x46;" d="M 256.404,429.632c-111.703,0-202.25-90.547-202.25-202.25c0-111.683, 90.547-202.23, 202.25-202.23s 202.25,90.547, 202.25,202.23
		C 458.655,339.085, 368.108,429.632, 256.404,429.632z M 299.277,272.356c0-1.823-1.436-3.43-3.43-3.43L 268.237,268.925 l0-101.284 
		c0-1.802-1.628-3.43-3.43-3.43l-16.804,0 c-1.802,0-3.43,1.628-3.43,3.43L 244.572,268.925 L 216.96,268.925 c-1.994,0-3.43,1.608-3.43,3.43l0,14.789 
		c0,1.802, 1.436,3.43, 3.43,3.43l 78.884,0 c 1.994,0, 3.43-1.628, 3.43-3.43L 299.274,272.356 z" />
<glyph unicode="&#x47;" d="M 301.745,285.885c-22.743,0-41.349-18.959-41.349-41.705c0-22.743, 18.606-41.347, 41.349-41.347
		c 22.743,0, 41.521,18.606, 41.521,41.347C 343.265,266.926, 324.488,285.885, 301.745,285.885zM 257.375,429.632c-111.7,0-202.245-90.555-202.245-202.248c0-111.69, 90.545-202.232, 202.245-202.232s 202.245,90.542, 202.245,202.232
		C 459.62,339.077, 369.075,429.632, 257.375,429.632z M 228.308,289.313c0-1.81-1.436-3.428-3.43-3.428L 171.438,285.885 l0-33.946 l 44.608,0 
		c 1.8,0, 3.43-1.628, 3.43-3.43l0-14.799 c0-1.812-1.631-3.43-3.43-3.43L 171.438,230.28 l0-45.67 c0-1.81-1.608-3.428-3.43-3.428l-16.591,0 
		c-1.994,0-3.43,1.618-3.43,3.428L 147.986,304.115 c0,1.8, 1.436,3.43, 3.43,3.43l 73.459,0 c 1.994,0, 3.43-1.631, 3.43-3.43L 228.306,289.313 z
		 M 354.092,150.851c 1.628-2.529,0-5.422-2.872-5.422l-19.141,0 c-0.73,0-2.358,0.727-2.893,1.81l-19.313,32.681
		c-2.893-0.366-5.96-0.548-8.125-0.548c-36.099,0-64.799,28.703-64.799,64.809c0,36.099, 28.7,65.165, 64.799,65.165
		c 36.099,0, 64.993-29.066, 64.993-65.165c0-24.556-14.254-46.216-35.197-57.766L 354.092,150.851z" />
<glyph unicode="&#x48;" d="M 254.623,426.24c-111.524,0-202.253-90.742-202.253-202.232c0-111.506, 90.726-202.245, 202.253-202.245
	c 42.386,0, 82.926,12.951, 117.279,37.481c 9.784,6.904, 12.001,20.444, 5.1,30.154c-1.28,1.8-2.926,3.4-4.856,4.826l-93.957,104.804
	l 40.965,41.795c 2.627,2.911, 3.356,7.035, 1.812,10.524c-1.544,3.438-4.979,5.594-9.011,5.594l-27.453,0 c-4.908,0-8.059-2.668-10.688-4.892
	L 239.718,217.459L 239.718,337.316 c0,5.512-4.611,10.135-10.143,10.135L 203.919,347.451 c-5.471,0-10.132-4.623-10.132-10.135l0-199.741 
	c0-5.481, 4.662-10.115, 10.132-10.115l 25.654,0 c 5.532,0, 10.143,4.636, 10.143,10.115l0,39.575 l 85.614-95.511
	c-22.098-11.044-45.87-16.676-70.71-16.676c-87.67,0-159.032,71.345-159.032,159.040c0,87.67, 71.363,159.009, 159.032,159.009
	c 87.662,0, 158.986-71.34, 158.986-159.045c0-8.036-0.694-15.982-1.879-23.905c-1.185-0.084-2.373-0.535-3.331-1.311
	c-1.677-1.316-2.519-3.436-2.214-5.571l 7.040-36.48c 0.325-2.181, 1.812-4.029, 3.871-4.826c 0.666-0.256, 1.416-0.389, 2.143-0.389
	c 1.428,0, 2.816,0.494, 3.935,1.444l 29.729,22.6c 1.626,1.364, 2.419,3.556, 2.063,5.665c-0.23,1.431-1.011,2.655-2.048,3.579
	c 2.56,12.846, 3.919,25.984, 3.919,39.227C 456.835,335.496, 366.134,426.24, 254.623,426.24z" />
<glyph unicode="&#x49;" d="M 453.384,224.005c0,111.693-90.547,202.232-202.232,202.232c-92.772,0-170.893-62.49-194.721-147.661l 230.351,0 L 286.781,305.472 l 93.309-81.464
	l-93.309-81.462L 286.781,169.421 L 56.428,169.421 C 80.259,84.25, 158.377,21.76, 251.149,21.76C 362.834,21.76, 453.384,112.305, 453.384,224.005z" />
<glyph unicode="&#x4a;" d="M 259.284,21.76c 111.703,0, 202.255,90.555, 202.255,202.253c0,111.685-90.552,202.225-202.255,202.225
	c-111.685,0-202.225-90.54-202.225-202.225C 57.060,112.315, 147.599,21.76, 259.284,21.76z M 182.981,251.395
	c-0.013,1.948, 0.622,2.314, 2.386,2.299c 8.858-0.097, 17.718,0.031, 26.563-0.097c 2.186-0.015, 2.962,0.407, 2.947,2.821
	c-0.141,10.99-0.253,22.008,0,32.998c 0.253,12.485, 3.133,24.266, 10.624,34.563c 8.732,11.991, 20.948,18.156, 35.354,20.257
	c 11.525,1.692, 23.107,0.678, 34.691,0.225c 3.215-0.113, 6.433-0.466, 9.649-0.635c 1.439-0.054, 2.202-0.338, 2.186-2.099
	c-0.084-12.078-0.084-24.166, 0.015-36.255c 0.013-1.836-0.778-1.948-2.214-1.948c-7.606,0.044-15.222,0.028-22.84,0.028
	c-2.977,0-5.939-0.294-8.845-1.029c-7.45-1.889-11.653-6.659-12.329-14.318c-0.975-10.977-0.212-21.996-0.438-32.998
	c-0.056-1.917, 1.242-1.551, 2.342-1.551c 12.652,0, 25.324,0, 37.99,0c 5.98,0, 5.911,0, 5.586-5.98c-0.604-11.4-1.126-22.797-1.705-34.196
	c-0.169-3.484-0.169-3.484-3.628-3.484c-12.498,0-24.983,0-37.494-0.015c-0.891,0-1.807-0.095-2.711-0.156
	c-0.294-0.015-0.438-0.141-0.282-0.451c-0.028-5.53-0.082-11.044-0.097-16.576c0-17.48,0-34.985,0-52.465
	c0-0.991, 0.084-1.974, 0.141-2.964c-0.054-0.901-0.141-1.789-0.141-2.706c0-11.85, 0.056-23.7,0-35.566
	c-0.028-2.949, 0.325-5.924-0.325-8.845c-14.221,0.026-28.454,0.125-42.673,0.026c-2.412-0.010-3.005,0.594-2.99,2.995
	c 0.084,37.96, 0.044,75.95, 0.128,113.94c 0.013,2.299-0.607,2.865-2.877,2.826c-8.929-0.131-17.861,0-26.79-0.1
	c-1.748,0-2.214,0.504-2.214,2.255C 183.050,225.27, 183.066,238.331, 182.981,251.395z" />
<glyph unicode="&#x4b;" d="M 256.404,21.76c 111.695,0, 202.24,90.545, 202.24,202.24c0,111.695-90.545,202.24-202.24,202.24s-202.24-90.545-202.24-202.24C 54.164,112.305, 144.709,21.76, 256.404,21.76z
	 M 316.8,195.86c 2.888,3.195, 7.393,1.769, 9.751-0.1l 45.286-36.805c 2.317-2.34, 3.167-6.804, 1.605-10.419l-7.757-9.275l-58.191,47.306
	L 316.8,195.86z M 180.941,341.036c 3.628,1.592, 8.079,0.712, 10.422-1.603l 36.803-45.286c 1.884-2.373, 3.279-6.866, 0.097-9.764l-9.306-9.293
	L 171.635,333.281L 180.941,341.036z M 148.349,304.317c 4.8,8.637, 10.742,16.727, 15.276,21.402l 47.7-58.652
	c-1.994-2.33-3.151-4.073-5.217-7.741c-2.985-5.373-3.656-7.547, 2.189-15.724c 3.948-5.189, 15.654-20.078, 31.447-36.216l-0.028-0.046
	l 0.013-0.015l 0.028,0.031c 16.169-15.795, 31.040-27.484, 36.26-31.46c 8.148-5.829, 10.337-5.189, 15.695-2.189
	c 3.684,2.066, 5.412,3.22, 7.729,5.215l 58.668-47.685c-4.687-4.544-12.739-10.491-21.402-15.276c-9.347-5.079-19.533-9.139-26.578-9.795
	c-25.308,9.946-70.428,34.975-103.493,68.040l-0.028,0.031c-33.065,33.065-58.094,78.185-68.042,103.503
	C 139.226,284.772, 143.286,294.968, 148.349,304.317z" />
<glyph unicode="&#x4c;" d="M 257.288,182.484c 22.743,0, 41.521,18.583, 41.521,41.336c0,22.753-18.775,41.702-41.521,41.702
		c-22.764,0-41.347-18.949-41.347-41.702C 215.941,201.068, 234.524,182.484, 257.288,182.484zM 257.375,21.765c 111.698,0, 202.24,90.54, 202.24,202.227s-90.542,202.24-202.24,202.24s-202.24-90.552-202.24-202.24S 145.674,21.765, 257.375,21.765z
		 M 257.288,288.996c 36.099,0, 64.97-29.066, 64.97-65.172s-28.872-64.809-64.97-64.809c-36.116,0-64.819,28.703-64.819,64.809
		S 221.171,288.996, 257.288,288.996z" />
<glyph unicode="&#x4d;" d="M 254.587,428.221c-111.68,0-202.225-90.545-202.225-202.253c0-111.68, 90.545-202.227, 202.225-202.227
	c 111.703,0, 202.255,90.545, 202.255,202.227C 456.842,337.677, 366.29,428.221, 254.587,428.221z M 393.766,236.375
	c-3.167-3.348-6.843-5.972-11.036-7.869c-3.502-1.59-7.178-2.637-10.993-3.11c-3.085-0.364-6.175-0.599-9.265-0.097
	c-0.486,0.097-0.732-0.084-0.865-0.558c-1.262-4.841-2.831-9.585-4.731-14.218c-1.953-4.8-4.214-9.472-6.843-13.952
	c-2.442-4.157-5.143-8.174-8.128-11.955c-1.812-2.33-3.725-4.547-5.706-6.723c-6.474-7.060-13.814-13.071-21.819-18.291
	c-8.44-5.484-17.413-9.864-26.816-13.422c-8.136-3.054-16.489-5.412-25.001-7.199c-4.465-0.95-8.973-1.715-13.494-2.26
	c-3.991-0.476-7.98-0.906-12.012-1.116c-3.446-0.182-6.892-0.389-10.337-0.292c-4.764,0.11-9.531,0.389-14.257,0.963
	c-5.276,0.64-10.519,1.549-15.683,2.819c-7.575,1.843-14.927,4.396-22.057,7.603c-9.359,4.201-18.086,9.431-26.227,15.654
	c-4.18,3.167-8.113,6.6-11.901,10.253c-4.393,4.227-8.44,8.804-12.165,13.632c-0.179,0.223-0.335,0.461-0.476,0.712
	c-0.049,0.069-0.028,0.166-0.067,0.404c 0.865-0.376, 1.38-0.991, 2.015-1.492c 7.457-5.719, 15.718-9.989, 24.673-12.808
	c 4.209-1.326, 8.497-2.232, 12.884-2.693c 3.028-0.351, 6.075-0.586, 9.124-0.461c 5.524,0.21, 10.972,0.991, 16.3,2.524
	c 9.244,2.609, 17.608,6.989, 25.38,12.585c 2.755,1.966, 5.386,4.114, 7.946,6.333c 0.202,0.21, 0.481,0.335, 0.522,0.712
	c-2.931-0.195-5.798,0.028-8.594,0.809c-3.133,0.881-5.942,2.276-8.23,4.659c-3.090,3.264-3.256,7.98-0.433,11.482
	c 1.882,2.33, 4.17,4.101, 6.766,5.553c 0.225,0.11, 0.433,0.266, 0.65,0.392c 0.061,0.069, 0.090,0.138, 0.202,0.266
	c-0.502,0.21-0.95-0.056-1.382-0.056c-6.090,0-11.955,1.006-17.426,3.822c-4.001,2.038-7.365,4.884-10.186,8.384
	c-1.073,1.326-1.966,2.762-2.819,4.242c-0.364,0.614-0.223,1.019, 0.223,1.505c 2.135,2.245, 4.723,3.768, 7.583,4.828
	c 2.629,0.991, 5.33,1.605, 8.128,1.772c 0.461,0.028, 0.914,0.125, 1.605,0.223c-0.822,0.251-1.439,0.445-2.066,0.614
	c-5.581,1.464-10.854,3.628-15.526,7.073c-5.985,4.424-10.199,10.074-11.622,17.523c-0.417,2.301-0.461,2.373, 1.8,2.775
	c 3.126,0.599, 6.277,1.047, 9.459,1.367c 1.178,0.113, 2.401,0.097, 3.753,0.433c-0.978,0.614-1.851,1.185-2.719,1.743
	c-5.86,3.725-10.89,8.261-14.538,14.259c-2.499,4.088-4.104,8.525-4.59,13.325c-0.113,1.172-0.128,2.358-0.113,3.543
	c 0.015,0.922, 0.166,1.032, 1.006,0.712c 4.073-1.603, 8.148-3.167, 12.209-4.813c 4.372-1.772, 8.748-3.543, 13.084-5.386
	c 4.605-1.938, 9.196-3.948, 13.778-5.957c 5.888-2.611, 11.74-5.317, 17.51-8.161c 5.253-2.596, 10.47-5.245, 15.444-8.259
	c 2.662-1.618, 5.015-3.671, 7.414-5.637c 2.852-2.289, 5.491-4.828, 8.154-7.324c 0.481-0.445, 0.906-0.95, 1.354-1.452
	c 0.41-0.461, 0.612-0.404, 0.837,0.21c 1.178,3.223, 2.33,6.446, 3.62,9.613c 3.535,8.804, 7.547,17.354, 12.209,25.615
	c 2.888,5.107, 6.026,10.058, 9.597,14.733c 3.717,4.882, 7.882,9.375, 12.836,13.071c 1.039,0.768, 2.163,1.423, 3.254,2.12
	c 0.202,0.141, 0.445,0.392, 0.684,0.197c 0.21-0.197, 0.020-0.489-0.061-0.753c-0.509-1.577-1.262-3.069-2.079-4.534
	c-0.074-0.154-0.2-0.294-0.166-0.532c 0.371-0.041, 0.594,0.238, 0.86,0.404c 3.863,2.721, 7.992,4.925, 12.449,6.446
	c 1.864,0.655, 3.786,1.157, 5.755,1.408c 0.586,0.069, 0.696-0.084, 0.643-0.558c-0.141-1.101-0.678-2.022-1.367-2.831
	c-1.408-1.743-3.231-3.013-5.12-4.157c-0.187-0.113-0.448-0.141-0.53-0.532c 1.27,0.476, 2.47,0.922, 3.676,1.326
	c 3.287,1.157, 6.636,2.107, 10.109,2.499c 1.318,0.125, 2.65,0.054, 3.927-0.348c 1.603-0.53, 2.217-2.301, 1.303-3.74
	c-0.906-1.408-2.33-2.189-3.766-2.944c-3.963-2.063-8.233-3.361-12.531-4.506c-1.8-0.486-3.612-0.934-5.396-1.521
	c 1.326-0.141, 2.621-0.266, 3.948-0.376c 3.62-0.32, 7.158-1.060, 10.644-2.035c 6.021-1.674, 11.592-4.283, 16.712-7.869
	c 3.907-2.719, 7.388-5.916, 10.527-9.516c 5.030-5.76, 8.845-12.25, 11.784-19.282c 1.759-4.186, 3.139-8.509, 4.060-12.974
	c 0.125-0.558, 0.356-0.809, 0.919-0.95c 3.64-0.893, 7.324-1.439, 11.057-1.715c 4.736-0.348, 9.411-0.069, 14.054,0.934
	c 1.953,0.433, 3.878,1.047, 5.832,1.869c-0.128-1.032-0.614-1.772-1.055-2.524c-1.874-3.11-4.539-5.386-7.693-7.114
	c-4.652-2.555-9.669-3.948-14.874-4.716c-1.62-0.236-3.223-0.461-5.066-0.599c 0.837-0.64, 1.667-0.809, 2.427-1.060
	c 4.227-1.326, 8.553-2.163, 12.995-2.511c 3.187-0.266, 6.382-0.166, 9.572-0.11c 1.431,0.056, 2.852,0.279, 4.291,0.433
	c 0.179,0.013, 0.402,0.166, 0.515-0.097C 394.102,236.598, 393.892,236.5, 393.766,236.375z" />
<glyph unicode="&#x4e;" d="M 198.828,249.349l 77.243,0 c 2.358,0, 4.268,1.902, 4.268,4.265c0,2.376-1.91,4.301-4.268,4.301L 198.828,257.915 
		c-2.371,0-4.306-1.925-4.306-4.301C 194.522,251.251, 196.457,249.349, 198.828,249.349zM 306.65,200.771L 198.802,200.771 c-2.345,0-4.28-1.912-4.28-4.275c0-2.378, 1.935-4.308, 4.28-4.308l 107.848,0 
		c 2.332,0, 4.255,1.93, 4.255,4.308C 310.904,198.858, 308.982,200.771, 306.65,200.771zM 251.896,169.393l-53.094,0 c-2.345,0-4.28-1.897-4.28-4.28c0-2.353, 1.935-4.291, 4.28-4.291l 53.094,0 
		c 2.371,0, 4.321,1.938, 4.321,4.291C 256.218,167.496, 254.267,169.393, 251.896,169.393zM 306.65,230.569L 198.802,230.569 c-2.345,0-4.28-1.912-4.28-4.288c0-2.363, 1.935-4.278, 4.28-4.278l 107.848,0 
		c 2.332,0, 4.255,1.915, 4.255,4.278C 310.904,228.659, 308.982,230.569, 306.65,230.569zM 254.904,428.221c-111.695,0-202.237-90.542-202.237-202.237c0-111.698, 90.542-202.243, 202.237-202.243s 202.237,90.545, 202.237,202.243
		C 457.142,337.679, 366.6,428.221, 254.904,428.221z M 326.73,140.79c0-4.759-3.809-8.571-8.55-8.571L 191.642,132.219 
		c-4.751,0-8.55,3.809-8.55,8.571L 183.091,311.199 c0,4.741, 3.796,8.55, 8.55,8.55l 93.409,0 c 4.728,0, 11.274-2.696, 14.615-6.054l 21.023-21.074
		c 3.354-3.374, 6.039-9.92, 6.039-14.664L 326.728,140.79 z" />
<glyph unicode="&#x4f;" d="M 259.3,428.221c-111.695,0-202.24-90.545-202.24-202.24s 90.545-202.24, 202.24-202.24s 202.24,90.545, 202.24,202.24S 370.995,428.221, 259.3,428.221z M 220.869,140.081
	l-14.717,0 L 206.152,233.626 l 14.717,0 L 220.869,140.081 z M 312.435,140.081l-14.717,0 L 297.718,233.626 l 14.717,0 L 312.435,140.081 z M 319.237,139.953L 319.237,233.539 
	c 3.3,0, 6.497-0.358, 9.608-0.993l0,21.266 c0,38.341-31.204,69.54-69.545,69.54c-38.367,0-69.571-31.199-69.571-69.54l0-21.266 
	c 3.123,0.637, 6.321,0.993, 9.62,0.993l0-93.583 c-25.815,0-46.774,20.961-46.774,46.781c0,16.891, 8.996,31.67, 22.413,39.877L 174.989,253.811 
	c0,46.464, 37.842,84.293, 84.314,84.293c 46.456,0, 84.288-37.829, 84.288-84.293l0-27.197 c 13.43-8.207, 22.426-22.986, 22.426-39.877
	C 366.013,160.916, 345.052,139.953, 319.237,139.953z" />
<glyph unicode="&#x50;" d="M 256.404,428.221c-111.706,0-202.25-90.537-202.25-202.24c0-111.693, 90.545-202.24, 202.25-202.24c 111.698,0, 202.25,90.545, 202.25,202.24
	C 458.655,337.684, 368.102,428.221, 256.404,428.221z M 365.993,228.434l-26.934,0 l0-109.916 L 277.734,118.518 L 277.734,165.299 L 235.075,165.299 l0-46.779 l-61.312,0 L 173.763,228.434 L 146.813,228.434 
	l0,20.483 l 3.459,2.711l 5.235,4.127l-0.031,0.044l 100.9,77.627l0,0.028 l 0.013-0.013l 0.031,0.013l0-0.028 l 100.913-77.627l-0.044-0.044
	l 5.248-4.127l 3.459-2.711L 365.996,228.434 z" />
<glyph unicode="&#x51;" d="M 257.375,23.736c 111.698,0, 202.243,90.545, 202.243,202.243c0,111.698-90.545,202.245-202.243,202.245s-202.243-90.547-202.243-202.245
		C 55.132,114.284, 145.677,23.736, 257.375,23.736z M 144.556,264.591c0,12.588, 10.204,22.799, 22.794,22.799l 91.832,0 l-10.895,19.95L 157.143,307.341 
		c-6.295,0-11.402,5.105-11.402,11.402c0,6.292, 5.107,11.397, 11.402,11.397L 255.053,330.14 c 4.168,0, 8.003-2.278, 10.002-5.937l 20.096-36.81l 30.39,0 
		c 12.59,0, 22.807-10.209, 22.807-22.799l0-19.858 l 45.617,26.834c 1.784,1.047, 3.786,1.572, 5.786,1.572c 1.951,0, 3.912-0.499, 5.658-1.5
		c 3.556-2.033, 5.747-5.811, 5.747-9.9l0-79.798 c0-4.091-2.191-7.862-5.747-9.887c-1.746-1.009-3.707-1.518-5.658-1.518
		c-1.999,0-3.988,0.53-5.773,1.58l-45.629,26.819l0-19.848 c0-12.588-10.217-22.794-22.807-22.794L 167.352,156.296 c-12.59,0-22.794,10.207-22.794,22.794
		L 144.558,264.591 zM 173.059,179.087l 85.489,0 c 3.136,0, 5.696,2.568, 5.696,5.709l0,45.594 c0,3.133-2.56,5.699-5.696,5.699L 173.059,236.088 
		c-3.146,0-5.706-2.565-5.706-5.699l0-45.594 C 167.352,181.655, 169.912,179.087, 173.059,179.087z" />
<glyph unicode="&#x52;" d="M 241.439,142.254L 258.222,142.254L 258.222,125.988L 241.439,125.988zM 241.434,201.802L 258.176,201.802L 258.176,185.18L 241.434,185.18zM 254.935,276.278l0-0.205 l 29.65,0 c 0.189,0.013, 0.394,0.064, 0.612,0.064c 0.189,0, 0.394-0.051, 0.596-0.064l 0.115,0 l0-0.013 
		c 14.438-0.389, 26.030-12.055, 26.030-26.465l-0.205-45.947c0-0.061-0.038-0.115-0.038-0.169l-0.051-14.164c0-7.404, 6.039-13.389, 13.504-13.389
		c 7.442,0, 13.484,5.988, 13.484,13.389l 0.074,0 L 338.706,351.304 l-120.32,0 l0-75.228 l 34.555,0 C 253.606,276.127, 254.244,276.278, 254.935,276.278z M 286.331,335.186
		l 37.179,0 l0-15.736 l-37.179,0 L 286.331,335.186 z M 286.331,303.171l 37.179,0 l0-15.729 l-37.179,0 L 286.331,303.171 z M 232.289,335.229l 40.776,0 l0-47.908 L 232.289,287.322 L 232.289,335.229 zM 138.143,252.756l0-7.452 l 16.742,0 l0,17.62 l-4.142,0 C 144.627,262.925, 139.543,258.586, 138.143,252.756zM 254.602,426.76c-111.695,0-202.24-90.545-202.24-202.24s 90.545-202.24, 202.24-202.24s 202.24,90.545, 202.24,202.24S 366.298,426.76, 254.602,426.76z M 351.939,357.891
		c0-0.013,0-0.013,0-0.033l0-168.543 c0-14.666-11.991-26.552-26.772-26.552l-53.729,0 l0-43.384 c0-3.62-2.957-6.551-6.612-6.551L 131.54,112.827 
		l0,0.778 l-0.013,0 c-3.656,0-6.612,3.604-6.612,8.054L 124.915,249.533 l 0.051,0.077c 0.041,14.595, 11.533,26.406, 25.728,26.463l0,0.005 l 54.469,0 L 205.164,357.865 
		c0,0.292, 0.128,0.553, 0.164,0.84l0,5.709 l 146.611,0 L 351.939,357.891 zM 298.639,249.597c0,7.391-6.039,13.391-13.494,13.391c-7.439,0-13.504-6.001-13.504-13.391l-0.205-11.924l0-61.793 l 30.784,0 
		c-2.358,3.955-3.796,8.504-3.796,13.435L 298.639,249.597zM 241.434,172.027L 258.202,172.027L 258.202,155.412L 241.434,155.412zM 241.439,250.132l0-4.833 l 16.906,0 l 0.077,4.298c0,4.882, 1.428,9.39, 3.748,13.33l-9.226,0 C 246.551,261.996, 241.631,256.676, 241.439,250.132
		zM 241.439,232.141L 258.156,232.141L 258.156,214.95L 241.439,214.95zM 138.143,172.027L 154.885,172.027L 154.885,155.412L 138.143,155.412zM 138.143,232.141L 154.885,232.141L 154.885,214.95L 138.143,214.95zM 138.143,142.254L 154.885,142.254L 154.885,125.988L 138.143,125.988zM 138.143,201.802L 154.885,201.802L 154.885,185.18L 138.143,185.18z" />
<glyph unicode="&#x53;" d="M 254.904,426.76c-111.695,0-202.24-90.545-202.24-202.24c0-111.695, 90.545-202.24, 202.24-202.24s 202.24,90.545, 202.24,202.24
	C 457.144,336.215, 366.6,426.76, 254.904,426.76z M 356.14,246.474c-6.065-14.871-14.042-28.695-23.012-41.948
	c-13.814-20.426-28.721-39.997-45.857-57.772c-9.569-9.938-19.84-19.072-31.908-25.956c-6.638-3.771-13.632-6.536-21.279-7.555
	c-8.054-1.070-14.986,1.185-20.972,6.561c-6.039,5.427-10.081,12.257-13.775,19.356c-4.69,8.983-7.109,18.706-9.772,28.388
	c-5.875,21.384-11.405,42.877-17.687,64.159c-2.063,6.956-4.626,13.734-8.141,20.132c-1.236,2.243-2.624,4.396-4.308,6.359
	c-1.211,1.413-2.575,2.662-4.206,3.592c-2.383,1.377-4.741,1.631-7.263,0.215c-5.123-2.842-9.966-6.090-14.73-9.454
	c-1.083-0.778-1.618-0.753-2.435,0.343c-3.146,4.193-6.382,8.307-9.633,12.424c-0.573,0.74-0.65,1.134, 0.128,1.82
	c 11.837,10.511, 23.675,21.025, 35.464,31.601c 2.268,2.038, 4.626,3.963, 7.007,5.85c 4.152,2.982, 8.166,6.18, 12.575,8.804
	c 3.976,2.371, 7.951,4.854, 12.552,5.734c 10.778,2.063, 19.978-0.573, 27.026-9.428c 5.148-6.472, 7.48-14.118, 9.377-21.98
	c 0.509-2.089, 0.65-4.242, 1.336-6.295c 0.013-0.433-0.038-0.878, 0.026-1.298c 0.868-5.238, 1.723-10.46, 2.614-15.685
	c 2.181-12.641, 4.027-25.344, 6.856-37.855c 1.974-8.817, 4.106-17.585, 7.532-25.981c 1.388-3.387, 2.954-6.687, 5.466-9.441
	c 2.982-3.287, 5.862-3.658, 9.582-1.275c 2.701,1.733, 4.931,3.988, 6.945,6.449c 9.554,11.674, 17.393,24.425, 23.634,38.149
	c 2.893,6.305, 4.777,12.882, 4.472,19.927c-0.177,4.28-1.224,8.259-4.46,11.328c-2.701,2.56-6.039,3.671-9.723,3.899
	c-6.382,0.394-12.485-0.84-18.409-3.121c-0.522-0.205-1.019-0.612-1.797-0.407c 0.509,1.567, 0.968,3.069, 1.49,4.549
	c 1.111,3.159, 2.255,6.308, 3.389,9.454c 0.509,0.497, 0.801,1.121, 1.096,1.772c 3.274,7.173, 7.34,13.839, 12.385,19.93
	c 10.488,12.692, 24.136,19.164, 40.343,20.59c 7.324,0.65, 14.602,0.548, 21.724-1.618c 0.724-0.215, 1.349-0.74, 2.153-0.663
	c 11.709-4.713, 17.354-14.093, 19.635-25.905C 364.764,277.768, 362.447,261.906, 356.14,246.474z" />
<glyph unicode="&#x54;" d="M 365.453,146.883c-4.104-0.038-8.218-0.038-12.332,0c-0.829,0.013-1.085-0.241-1.085-1.044c0-2.038,0-4.078-0.115-6.116
		c-0.087-1.362-0.241-2.765-0.635-4.052c-0.829-2.688-2.726-4.037-5.187-4.165c-3.796-0.166-5.811,1.477-6.625,4.012
		c-0.65,2.025-1.009,4.229-1.083,6.369c-0.166,4.206-0.054,8.435-0.054,12.654c0,1.551-0.013,1.551, 1.518,1.551
		c 8.497,0, 16.998,0, 25.495,0c 1.377,0, 1.416,0.054, 1.416,1.377c0,5.020-0.026,10.028, 0.013,15.035c 0.026,3.848-0.305,7.657-1.224,11.405
		c-1.247,5.059-3.95,9.198-8.41,11.978c-6.333,3.95-13.11,4.229-19.981,1.733c-5.094-1.848-8.753-5.402-10.893-10.437
		c-1.554-3.643-2.13-7.506-2.243-11.402c-0.156-5.632-0.041-11.264-0.041-16.896c-0.026,0-0.051,0-0.051,0c-0.026-5.010-0.064-10.030,0-15.037
		c 0.051-3.796, 0.497-7.555, 1.592-11.226c 1.375-4.626, 4.014-8.358, 8.077-10.908c 6.423-4.024, 13.391-4.498, 20.375-1.91
		c 7.212,2.662, 11.315,8.192, 12.385,15.759c 0.461,3.3, 0.256,6.676, 0.42,10.030C 366.83,146.614, 366.436,146.895, 365.453,146.883z
		 M 338.616,178.79c 0.192,2.47, 0.916,4.854, 3.146,6.356c 3.761,2.522, 8.817,0.371, 9.928-4.104c 0.801-3.238, 0.637-6.513, 0.663-9.772
		c 0.013-0.765-0.026-1.531, 0.013-2.284c 0.051-0.724-0.256-0.968-0.955-0.955c-2.040,0.038-4.078,0.013-6.106,0.013
		c-2.012,0-4.012,0.013-6.013-0.013c-0.691-0.013-0.996,0.189-0.97,0.942C 338.44,172.252, 338.378,175.526, 338.616,178.79zM 309.133,195.085c-3.272,4.168-9.211,5.036-14.269,2.995c-3.415-1.388-6.077-3.732-8.497-6.436
		c-0.156-0.189-0.358-0.33-0.701-0.637c0,0.599,0,0.932,0,1.275c0,10.435,0,20.872-0.013,31.306c0,1.377-0.026,1.413-1.362,1.413
		c-3.899,0.013-7.813,0.013-11.709,0c-1.349,0-1.349,0-1.349-1.413c0-5.975,0-11.953,0-17.928c0-28.224,0-56.448,0-84.682
		c0-1.544,0-1.544, 1.541-1.544c 3.835-0.013, 7.672-0.013, 11.507-0.013c 1.3,0, 1.375,0.087, 1.375,1.439
		c 0.013,1.848, 0.013,3.694, 0.013,5.555c 0.090,0.026, 0.179,0.051, 0.266,0.077c 0.32-0.358, 0.625-0.714, 0.942-1.060
		c 2.040-2.227, 4.283-4.229, 7.035-5.555c 4.091-1.951, 8.259-2.294, 12.308-0.013c 3.466,1.964, 5.199,5.263, 5.786,9.021
		c 0.599,3.732, 0.942,7.542, 0.996,11.315c 0.128,10.819, 0.102,21.635, 0.013,32.453c-0.038,4.649-0.243,9.316-0.612,13.952
		C 312.154,189.699, 311.094,192.586, 309.133,195.085z M 298.57,140.283c-0.013-1.923-0.535-3.896-1.211-5.706
		c-1.070-2.867-3.835-3.658-6.612-2.778c-1.505,0.471-2.842,1.477-4.229,2.281c-0.676,0.394-0.881,1.032-0.868,1.848
		c 0.026,7.631, 0.013,15.265, 0.013,22.897c0,7.57, 0.013,15.137-0.026,22.692c0,1.019, 0.358,1.669, 1.121,2.271
		c 1.439,1.132, 2.993,2.012, 4.803,2.294c 2.995,0.461, 5.251-0.929, 6.18-3.937c 0.484-1.554, 0.827-3.236, 0.84-4.867
		C 298.647,164.938, 298.673,152.604, 298.57,140.283zM 214.932,225.016c-15.8-0.013-31.588-0.013-47.375,0.013c-0.968,0-1.247-0.358-1.247-1.288
		c 0.038-4.114, 0.026-8.23, 0.026-12.334c0-1.349, 0.038-1.4, 1.388-1.4c 4.703,0, 9.405-0.026, 14.108,0.026
		c 1.044,0, 1.362-0.292, 1.349-1.349c-0.038-5.389-0.026-10.78-0.026-16.169c0-23.777,0-47.539,0-71.316c0-1.759, 0.013-1.759, 1.795-1.759
		c 4.216-0.013, 8.435-0.013, 12.652,0c 1.518,0, 1.544,0.026, 1.544,1.58c0,14.589,0,29.166,0,43.743s0,29.169,0,43.743
		c0,1.505,0,1.505, 1.464,1.505c 4.764,0, 9.533,0.026, 14.298-0.026c 0.968,0, 1.349,0.266, 1.336,1.285c-0.038,4.155-0.038,8.294, 0.013,12.436
		C 216.269,224.724, 215.887,225.029, 214.932,225.016zM 259.963,275.4c 2.739,0.026, 4.892,1.554, 5.67,4.408c 0.522,1.974, 0.855,4.065, 0.893,6.103
		c 0.115,5.594, 0.038,11.187, 0.038,16.796c0,5.619, 0.090,11.264-0.038,16.883c-0.054,2.153-0.381,4.344-0.983,6.397
		c-0.814,2.803-3.069,4.244-5.847,4.206c-2.752-0.038-4.931-1.567-5.696-4.396c-0.522-1.912-0.881-3.924-0.906-5.898
		c-0.077-11.507-0.077-22.999,0-34.506c 0.026-1.9, 0.371-3.86, 0.916-5.683C 254.879,276.774, 257.009,275.359, 259.963,275.4zM 257.81,198.234c-3.835-0.038-7.685-0.013-11.507-0.013c-1.592,0-1.592-0.013-1.592-1.644c0-19,0-37.998, 0.026-57.009
		c0-1.057-0.215-1.912-0.904-2.726c-1.784-2.14-3.594-4.242-6.385-5.097c-2.181-0.676-4.28-0.177-4.703,2.345
		c-0.202,1.211-0.33,2.46-0.33,3.694c-0.013,19.446-0.013,38.902-0.013,58.358c0,0.371-0.013,0.753,0,1.134
		c 0.013,0.65-0.279,0.942-0.942,0.942c-4.18-0.013-8.361-0.013-12.539,0c-0.596,0-0.906-0.279-0.916-0.865c0-0.381,0-0.765,0-1.147
		c0-20.106-0.038-40.212, 0.028-60.319c0-2.931, 0.266-5.862, 0.586-8.781c 0.218-2.066, 0.852-4.065, 2.294-5.67
		c 3.008-3.361, 6.856-3.543, 10.87-2.662c 3.238,0.689, 5.962,2.509, 8.422,4.662c 1.503,1.3, 2.918,2.716, 4.511,4.216
		c0-2.432, 0.038-4.675-0.013-6.904c-0.026-0.996, 0.32-1.336, 1.313-1.336c 3.937,0.051, 7.875,0.051, 11.825,0
		c 1.009-0.013, 1.3,0.371, 1.3,1.336c-0.013,25.382-0.013,50.778,0,76.183C 259.136,197.916, 258.803,198.259, 257.81,198.234zM 259.3,426.76c-111.695,0-202.24-90.545-202.24-202.24c0-111.695, 90.545-202.24, 202.24-202.24s 202.24,90.545, 202.24,202.24
		C 461.54,336.215, 370.995,426.76, 259.3,426.76z M 293.957,342.065c 3.809,0, 7.608,0, 11.405,0c 1.349,0, 1.349,0, 1.349-1.362
		c0-20.145,0-40.289, 0.013-60.434c0-0.893, 0.154-1.797, 0.407-2.652c 0.576-1.897, 2.319-2.675, 4.434-2.051
		c 2.358,0.689, 4.027,2.307, 5.67,4.014c 1.416,1.467, 1.964,3.072, 1.964,5.174c-0.090,18.629-0.064,37.258-0.064,55.875
		c0,1.439,0,1.439, 1.48,1.439c 3.835,0, 7.67-0.038, 11.505,0.026c 1.019,0.013, 1.288-0.307, 1.288-1.288
		c-0.026-16.387-0.026-32.758-0.026-49.144c0-8.881,0-17.761,0-26.644c0-1.503,0-1.492-1.544-1.492c-3.899,0-7.811,0.013-11.722-0.026
		c-0.778,0-1.009,0.243-0.983,1.006c 0.041,2.002,0,4.001,0,6.016c0,0.33,0,0.663,0,1.006c-0.087,0.038-0.189,0.077-0.279,0.128
		c-1.234-1.249-2.419-2.537-3.707-3.707c-2.614-2.371-5.494-4.36-8.97-5.135c-3.543-0.791-7.020-0.74-10.015,1.746
		c-2.079,1.733-2.867,4.155-3.123,6.689c-0.292,3.085-0.471,6.205-0.471,9.3c-0.054,20.042-0.028,40.087-0.028,60.129
		C 292.541,342.065, 292.541,342.065, 293.957,342.065z M 238.81,318.3c 0.128,4.78, 0.55,9.556, 2.752,13.903
		c 2.97,5.811, 7.644,9.403, 14.157,10.447c 5.276,0.842, 10.345,0.346, 14.996-2.458c 4.815-2.893, 7.708-7.199, 8.97-12.641
		c 0.893-3.809, 1.147-7.695, 1.147-11.607c 0.013-9.226, 0.051-18.452-0.015-27.676c-0.038-4.344-0.394-8.678-1.861-12.844
		c-1.861-5.315-5.299-9.288-10.486-11.354c-6.856-2.726-13.75-2.499-20.145,1.477c-4.040,2.509-6.666,6.231-8.015,10.831
		c-1.147,3.912-1.492,7.926-1.518,11.963c-0.038,4.78-0.013,9.544-0.013,14.31C 238.784,307.878, 238.682,313.088, 238.81,318.3z
		 M 185.398,368.899c 4.764,0, 9.531-0.013, 14.295,0.013c 0.791,0, 1.172-0.228, 1.39-1.019c 1.3-4.969, 2.65-9.925, 3.988-14.881
		c 1.439-5.327, 2.893-10.639, 4.344-15.967c 0.791-2.931, 1.58-5.85, 2.371-8.778c 0.102-0.013, 0.192-0.038, 0.279-0.064
		c 0.279,0.968, 0.586,1.935, 0.829,2.918c 1.848,7.137, 3.668,14.285, 5.514,21.432c 1.352,5.199, 2.716,10.409, 4.106,15.596
		c 0.074,0.292, 0.445,0.699, 0.689,0.712c 5.069,0.038, 10.143,0.026, 15.429,0.026c-0.346-1.198-0.625-2.268-0.942-3.338
		c-1.9-6.321-3.809-12.664-5.734-18.998c-1.72-5.67-3.466-11.341-5.174-17.011c-1.733-5.709-3.441-11.428-5.161-17.137
		c-0.497-1.644-1.057-3.274-1.505-4.943c-0.215-0.829-0.356-1.695-0.356-2.55c-0.026-13.263-0.013-26.529-0.013-39.805
		c0-1.58,0-1.58-1.58-1.58c-4.357,0-8.701,0.026-13.064-0.026c-0.98-0.013-1.272,0.243-1.272,1.249
		c 0.038,13.34, 0.102,26.68-0.041,40.010c-0.038,2.675-0.712,5.389-1.388,8.013c-1.336,5.135-2.816,10.232-4.383,15.316
		c-1.339,4.357-2.867,8.691-4.321,13.023c-1.592,4.7-3.197,9.39-4.818,14.080c-1.439,4.165-2.88,8.346-4.332,12.513
		C 184.187,368.758, 184.264,368.899, 185.398,368.899z M 386.719,152.847c-0.279-6.856-0.893-13.709-1.592-20.539
		c-0.612-5.901-1.339-11.799-2.422-17.623c-1.185-6.397-4.662-11.607-9.669-15.736c-5.389-4.431-11.594-6.625-18.578-6.856
		c-4.69-0.141-9.364-0.522-14.054-0.75c-4.308-0.205-8.612-0.371-12.933-0.522c-7.621-0.282-15.24-0.576-22.861-0.817
		c-5.174-0.154-10.36-0.317-15.532-0.343c-13.238-0.077-26.478-0.102-39.703-0.077c-6.208,0-12.426,0.128-18.642,0.243
		c-4.879,0.090-9.736,0.256-14.602,0.407c-3.796,0.115-7.58,0.256-11.377,0.407c-5.965,0.256-11.914,0.535-17.889,0.842
		c-3.822,0.189-7.657,0.256-11.456,0.699c-11.558,1.326-19.901,7.186-24.671,17.915c-1.285,2.88-1.705,5.962-2.099,9.034
		c-0.484,3.732-1.032,7.452-1.454,11.187c-0.407,3.604-0.763,7.209-1.006,10.829c-0.42,6.231-0.855,12.46-1.057,18.693
		c-0.179,5.658-0.090,11.328-0.054,16.998c 0.028,3.351, 0.102,6.702, 0.294,10.040c 0.305,5.135, 0.676,10.258, 1.121,15.38
		c 0.371,4.37, 0.791,8.74, 1.377,13.071c 0.609,4.472, 0.852,9.021, 2.342,13.34c 2.204,6.423, 6.295,11.354, 12.004,14.945
		c 4.024,2.55, 8.407,4.104, 13.212,4.37c 4.918,0.269, 9.851,0.599, 14.769,0.829c 6.587,0.307, 13.164,0.561, 19.75,0.829
		c 4.142,0.154, 8.282,0.305, 12.424,0.407c 6.628,0.164, 13.253,0.279, 19.878,0.433c 2.691,0.064, 5.379,0.141, 8.067,0.23
		c 0.369,0.013, 0.737,0.115, 1.108,0.164c 9.262,0, 18.527,0, 27.779,0c 2.358,0, 4.703,0, 7.060,0c 0.343,0, 0.689,0, 1.032,0
		c 0.407-0.128, 0.814-0.369, 1.224-0.381c 4.447-0.077, 8.906-0.077, 13.366-0.179c 5.824-0.128, 11.661-0.32, 17.482-0.522
		c 5.53-0.192, 11.046-0.407, 16.566-0.676c 6.065-0.294, 12.129-0.65, 18.184-0.968c 3.95-0.205, 7.839-0.765, 11.492-2.358
		c 5.238-2.281, 9.582-5.696, 12.856-10.422c 2.716-3.912, 4.255-8.23, 4.803-12.946c 0.74-6.382, 1.695-12.731, 2.371-19.113
		c 0.484-4.728, 0.74-9.492, 0.97-14.257c 0.23-4.549, 0.407-9.098, 0.407-13.647C 387.013,167.882, 387.039,160.366, 386.719,152.847z
		 M 408.276,194.665c0,0.307, 0.041,0.612, 0.064,1.032c 0.906,0, 1.769,0.064, 2.614-0.051c 0.266-0.026, 0.596-0.497, 0.699-0.829
		c 1.198-3.528, 2.358-7.071, 3.53-10.601c 0.061-0.177, 0.141-0.371, 0.305-0.778c 0.243,0.474, 0.435,0.753, 0.535,1.044
		c 1.147,3.351, 2.319,6.702, 3.428,10.066c 0.279,0.829, 0.625,1.313, 1.58,1.172c 0.535-0.074, 1.098,0, 1.656,0.013
		c0-4.979,0-9.951,0-14.932c-0.637,0-1.288,0-2.102,0c0,3.924,0,7.67,0,11.43c-0.090,0-0.177,0.013-0.256,0.013
		c-0.74-2.127-1.49-4.27-2.217-6.397c-0.497-1.428-1.044-2.852-1.477-4.293c-0.218-0.753-0.699-0.714-1.262-0.727
		c-0.535-0.013-0.865,0.090-1.057,0.699c-1.044,3.174-2.14,6.336-3.236,9.495c-0.154,0.433-0.346,0.865-0.753,1.247
		c-0.026-0.279-0.061-0.561-0.061-0.84c0-3.187-0.015-6.359, 0.038-9.533c 0.013-0.801-0.205-1.083-1.044-1.096
		c-0.893-0.013-0.996,0.381-0.996,1.121C 408.292,186.168, 408.276,190.423, 408.276,194.665z M 406.367,195.571
		c 0.305-1.528, 0.205-1.654-1.234-1.654c-0.855,0-1.72-0.054-2.588,0.013c-0.84,0.061-1.057-0.307-1.044-1.098
		c 0.026-3.592, 0.013-7.186, 0.013-10.78c0-1.185-0.433-1.541-1.567-1.157c-0.23,0.074-0.433,0.609-0.433,0.942
		c-0.038,3.53-0.026,7.058-0.026,10.575c0,1.505,0,1.505-1.544,1.505c-0.906,0-1.797,0-2.688,0.013c-0.663,0-0.74,0.471-0.625,0.929
		c 0.074,0.305, 0.371,0.801, 0.573,0.801c 3.658,0.051, 7.314,0.026, 10.985,0C 406.241,195.661, 406.303,195.607, 406.367,195.571z" />
<glyph unicode="&#x55;" d="M 54.17,224.525c0-111.511, 90.721-202.243, 202.235-202.243c 111.524,0, 202.235,90.732, 202.235,202.243
	c0,111.537-90.711,202.235-202.235,202.235C 144.888,426.76, 54.17,336.061, 54.17,224.525z M 161.083,246.016c0,4.762, 3.868,8.673, 8.666,8.673
	l 100.695,0 L 270.444,285.96 c0,5.555, 3.451,7.176, 7.711,3.633l 35.205-29.315l 35.177-29.332c 4.268-3.538, 4.268-9.298,0-12.836l-35.177-29.32
	l-35.19-29.332c-4.275-3.543-7.726-1.933-7.726,3.622L 270.444,194.355 L 169.748,194.355 c-4.797,0-8.666,3.891-8.666,8.691L 161.083,246.016 z" />
<glyph unicode="&#x56;" d="M 257.375,426.76c-111.524,0-202.235-90.698-202.235-202.235c0-111.511, 90.711-202.243, 202.235-202.243
	c 111.516,0, 202.235,90.732, 202.235,202.243C 459.61,336.061, 368.888,426.76, 257.375,426.76z M 352.694,203.046
	c0-4.8-3.868-8.691-8.666-8.691L 243.336,194.355 l0-31.276 c0-5.555-3.451-7.165-7.726-3.622l-35.192,29.332L 165.24,218.112
	c-4.268,3.538-4.268,9.295,0,12.836l 35.177,29.332L 235.622,289.592c 4.262,3.543, 7.713,1.923, 7.713-3.633l0-31.27 l 100.692,0 
	c 4.797,0, 8.666-3.912, 8.666-8.673L 352.694,203.046 z" />
<glyph unicode="&#x20;" horiz-adv-x="256" />
</font>
</defs>
</svg>
